<svg width="134" height="134" viewBox="0 0 134 134" fill="none" xmlns="http://www.w3.org/2000/svg">
<path d="M67.2233 11.1667C36.7383 11.1667 11.8925 36.0125 11.8925 66.4975C11.8925 76.2683 14.4608 85.76 19.2625 94.135L11.4458 122.833L40.7583 115.128C48.8541 119.539 57.955 121.884 67.2233 121.884C97.7083 121.884 122.554 97.0383 122.554 66.5533C122.554 51.7575 116.803 37.855 106.362 27.4142C101.243 22.2446 95.1457 18.1456 88.4261 15.3562C81.7065 12.5667 74.4989 11.1425 67.2233 11.1667ZM67.2791 20.4908C79.5625 20.4908 91.0641 25.2925 99.7741 34.0025C104.048 38.2766 107.436 43.3518 109.745 48.9374C112.054 54.523 113.238 60.5093 113.23 66.5533C113.23 91.9016 92.5716 112.504 67.2233 112.504C58.96 112.504 50.8641 110.327 43.8291 106.083L42.1541 105.134L24.7341 109.712L29.3683 92.7392L28.2516 90.9525C23.6429 83.6294 21.2036 75.1502 21.2166 66.4975C21.2725 41.1492 41.875 20.4908 67.2791 20.4908ZM47.6258 40.9258C46.7325 40.9258 45.225 41.2608 43.9408 42.6567C42.7125 44.0525 39.0833 47.4583 39.0833 54.2141C39.0833 61.0258 44.0525 67.5583 44.6666 68.5075C45.4483 69.4567 54.4933 83.415 68.3958 89.3333C71.69 90.8408 74.2583 91.6783 76.2683 92.2925C79.5625 93.3533 82.5775 93.1858 84.9783 92.8508C87.6583 92.46 93.13 89.5008 94.3025 86.2625C95.475 83.0241 95.475 80.2883 95.14 79.6742C94.7491 79.1158 93.8558 78.7808 92.46 78.1666C91.0641 77.385 84.2525 74.035 83.0241 73.5883C81.74 73.1417 80.9583 72.9183 79.8975 74.2583C79.0041 75.6542 76.3241 78.7808 75.5425 79.6742C74.705 80.6233 73.9233 80.735 72.5833 80.065C71.1316 79.3391 66.665 77.8875 61.4166 73.1975C57.285 69.5125 54.5491 64.99 53.7116 63.5942C53.0416 62.2542 53.6558 61.4167 54.3258 60.8025C54.94 60.1883 55.8333 59.1833 56.3916 58.3458C57.1175 57.5642 57.3408 56.95 57.7875 56.0567C58.2341 55.1075 58.0108 54.3258 57.6758 53.6558C57.3408 53.0416 54.5491 46.1183 53.3766 43.3825C52.26 40.7025 51.1433 41.0375 50.25 40.9817C49.4683 40.9817 48.575 40.9258 47.6258 40.9258Z" fill="white"/>
</svg>
